<svg width="25" height="25" viewBox="0 0 25 25" fill="none" xmlns="http://www.w3.org/2000/svg">
<path d="M12.5 0.499512C5.87 0.499512 0.5 6.00899 0.5 12.804C0.5 18.2415 3.938 22.8526 8.705 24.4783C9.305 24.5941 9.525 24.2132 9.525 23.8866C9.525 23.5945 9.515 22.8202 9.51 21.7945C6.172 22.5364 5.468 20.1437 5.468 20.1437C4.922 18.7236 4.133 18.3438 4.133 18.3438C3.046 17.581 4.217 17.5966 4.217 17.5966C5.422 17.6822 6.055 18.8645 6.055 18.8645C7.125 20.7458 8.864 20.2022 9.55 19.8881C9.658 19.0919 9.967 18.5504 10.31 18.2426C7.645 17.9347 4.844 16.8767 4.844 12.1623C4.844 10.8194 5.309 9.72163 6.079 8.86078C5.944 8.54983 5.539 7.29871 6.184 5.60413C6.184 5.60413 7.189 5.2744 9.484 6.86568C10.444 6.59229 11.464 6.45664 12.484 6.45038C13.504 6.45664 14.524 6.59229 15.484 6.86568C17.764 5.2744 18.769 5.60413 18.769 5.60413C19.414 7.29871 19.009 8.54983 18.889 8.86078C19.654 9.72163 20.119 10.8194 20.119 12.1623C20.119 16.8892 17.314 17.9295 14.644 18.2321C15.064 18.6015 15.454 19.3559 15.454 20.509C15.454 22.1555 15.439 23.4786 15.439 23.8783C15.439 24.2007 15.649 24.5858 16.264 24.4626C21.065 22.8474 24.5 18.2332 24.5 12.804C24.5 6.00899 19.127 0.499512 12.5 0.499512Z" fill="#212121"/>
</svg>
